<svg width="35" height="28" viewBox="0 0 35 28" fill="none" xmlns="http://www.w3.org/2000/svg">
<path d="M34.1449 3.90649C32.9201 4.43483 31.5873 4.81507 30.2144 4.96317C31.6398 4.11636 32.7072 2.77855 33.2163 1.20073C31.8788 1.9964 30.4135 2.55434 28.8855 2.8498C28.2469 2.16706 27.4745 1.62316 26.6165 1.25199C25.7584 0.880822 24.8332 0.690334 23.8983 0.692399C20.1158 0.692399 17.0739 3.75839 17.0739 7.52083C17.0739 8.04917 17.1379 8.57752 17.242 9.08585C11.5783 8.78965 6.52702 6.0839 3.16884 1.94121C2.55694 2.98635 2.23629 4.17636 2.24023 5.38745C2.24023 7.75698 3.44502 9.84634 5.28221 11.0751C4.19952 11.0325 3.14219 10.7349 2.19621 10.2066V10.2906C2.19621 13.6088 4.54173 16.3586 7.66776 16.991C7.08081 17.1434 6.47701 17.2214 5.87059 17.2231C5.4263 17.2231 5.00603 17.1791 4.58175 17.1191C5.44631 19.8248 7.96395 21.7901 10.9619 21.8541C8.61637 23.6913 5.67846 24.772 2.48839 24.772C1.91602 24.772 1.38768 24.752 0.839325 24.688C3.86529 26.6292 7.45562 27.75 11.3221 27.75C23.8743 27.75 30.7427 17.3512 30.7427 8.32535C30.7427 8.02916 30.7427 7.73297 30.7227 7.43678C32.0516 6.46414 33.2163 5.25936 34.1449 3.90649Z" fill="white"/>
</svg>
