<svg width="33" height="33" viewBox="0 0 33 33" fill="none" xmlns="http://www.w3.org/2000/svg">
<path d="M31.2103 0.209961H1.7512C1.04274 0.209961 0.470367 0.782332 0.470367 1.49079V30.9499C0.470367 31.6584 1.04274 32.2307 1.7512 32.2307H31.2103C31.9188 32.2307 32.4911 31.6584 32.4911 30.9499V1.49079C32.4911 0.782332 31.9188 0.209961 31.2103 0.209961ZM27.5119 9.55603H24.9543C22.949 9.55603 22.5607 10.5086 22.5607 11.9096V14.9956H27.3478L26.7234 19.8267H22.5607V32.2307H17.5695V19.8307H13.3948V14.9956H17.5695V11.4332C17.5695 7.29856 20.0951 5.0451 23.7855 5.0451C25.5546 5.0451 27.0716 5.17718 27.5159 5.23722V9.55603H27.5119Z" fill="white"/>
</svg>
