<svg width="33" height="33" viewBox="0 0 33 33" fill="none" xmlns="http://www.w3.org/2000/svg">
<path d="M31.1981 0.209961H1.73899C1.03053 0.209961 0.45816 0.782332 0.45816 1.49079V30.9499C0.45816 31.6584 1.03053 32.2307 1.73899 32.2307H31.1981C31.9066 32.2307 32.4789 31.6584 32.4789 30.9499V1.49079C32.4789 0.782332 31.9066 0.209961 31.1981 0.209961ZM9.95632 27.4957H5.20524V12.2137H9.95632V27.4957ZM7.58278 10.1244C7.03814 10.1244 6.50572 9.96289 6.05286 9.6603C5.6 9.35771 5.24704 8.92762 5.03862 8.42444C4.83019 7.92125 4.77565 7.36755 4.88191 6.83337C4.98817 6.29919 5.25044 5.80851 5.63556 5.42339C6.02069 5.03826 6.51136 4.77599 7.04555 4.66973C7.57973 4.56348 8.13342 4.61801 8.63661 4.82644C9.1398 5.03487 9.56988 5.38783 9.87247 5.84069C10.1751 6.29354 10.3366 6.82596 10.3366 7.37061C10.3326 8.89159 9.09977 10.1244 7.58278 10.1244ZM27.7439 27.4957H22.9968V20.0628C22.9968 18.2897 22.9648 16.0122 20.5272 16.0122C18.0576 16.0122 17.6773 17.9415 17.6773 19.9348V27.4957H12.9343V12.2137H17.4892V14.3031H17.5533C18.1857 13.1023 19.7347 11.8335 22.0482 11.8335C26.8593 11.8335 27.7439 14.9996 27.7439 19.1142V27.4957Z" fill="white"/>
</svg>
